<?xml version="1.0" encoding="UTF-8"?>
<svg id="Camada_2" data-name="Camada 2" xmlns="http://www.w3.org/2000/svg" viewBox="0 0 823.52 78">
  <defs>
    <style>
      .cls-1 {
        stroke-width: 0px;
      }
    </style>
  </defs>
  <g id="Camada_1-2" data-name="Camada 1">
    <g>
      <polygon class="cls-1" fill="#00666c" points="66.1 64.59 19.15 1.64 0 1.64 0 76.31 13.41 76.31 13.41 14.52 59.76 76.31 79.51 76.31 79.51 1.64 66.1 1.64 66.1 64.59"/>
      <path class="cls-1" fill="#00666c" d="M195.8,4.85C188.75,1.56,180.6-.07,171.57,0c-.19,0-.37,0-.56,0-8.83,0-16.81,1.63-23.75,4.85-7.02,3.26-12.53,7.91-16.38,13.81-3.84,5.89-5.74,12.68-5.65,20.17v.04c-.1,7.57,1.81,14.42,5.65,20.37,3.85,5.96,9.37,10.64,16.38,13.92,7.08,3.3,15.25,4.92,24.27,4.82,9.15,0,17.32-1.66,24.31-4.93,6.92-3.24,12.36-7.87,16.16-13.76,3.8-5.88,5.73-12.76,5.73-20.45.1-7.52-1.8-14.31-5.62-20.2-3.84-5.91-9.32-10.55-16.31-13.81ZM193.27,59.1c-5.48,5.07-12.75,7.63-21.61,7.63s-16.29-2.57-21.8-7.63c-5.55-5.1-8.37-11.91-8.37-20.24s2.82-14.97,8.4-20.06c5.53-5.04,12.85-7.6,21.78-7.6s16.09,2.56,21.58,7.6c5.54,5.08,8.34,11.83,8.34,20.05s-2.8,15.14-8.31,20.24Z"/>
      <polygon class="cls-1" fill="#00666c" points="298.84 72.35 270.76 1.64 253.9 1.64 284.63 76.31 313.05 76.31 343.78 1.64 326.92 1.64 298.84 72.35"/>
      <path class="cls-1" fill="#00666c" d="M404.31,1.64l-31.4,74.67h16.86l7.29-17.53h41.83l7.29,17.53h16.91L431.64,1.64h-27.33ZM400.65,48.23l17.27-41.4,17.39,41.4h-34.66Z"/>
      <path class="cls-1" fill="#00666c" d="M551.4,33.96l-16.49-1.52c-6.01-.53-10.35-1.56-13.24-3.14-3.19-1.74-4.88-4.4-4.88-7.69,0-2.52,1.06-6.03,6.08-8.44,3.68-1.76,8.78-2.61,15.59-2.61,7.47,0,14.66.87,21.38,2.58,5.76,1.47,10.88,3.49,15.25,6.02l1.83-12.16c-4.77-2.11-10.38-3.8-16.69-5.01C553.37.67,546.15,0,538.76,0c-12.37,0-21.78,2.03-27.99,6.04-6.05,3.91-9,9.36-9,16.65,0,5.25,1.41,9.24,4.31,12.21,2.81,2.86,6.55,5.01,11.09,6.37,4.72,1.41,10.98,2.47,18.63,3.15l15.8,1.47c9.63.73,14.53,4.02,14.53,9.79,0,4.05-2.55,7.11-7.57,9.09-4.51,1.78-10.74,2.68-18.51,2.68-7.11,0-14.17-.92-20.99-2.72-5.83-1.54-10.97-3.54-15.32-5.93l-1.8,12.15c4.93,2.15,10.64,3.86,17.02,5.07,6.92,1.32,14.17,1.98,21.54,1.98,13.58,0,23.97-2.09,30.89-6.21,6.72-4.01,9.99-9.52,9.99-16.86,0-12.26-9.81-19.11-29.99-20.96Z"/>
      <path class="cls-1" fill="#00666c" d="M690.14,63.61c-6.44,1.64-13.25,2.47-20.25,2.47-9.76,0-17.56-2.39-23.17-7.12-5.71-4.8-8.6-11.56-8.6-20.1s2.89-15.23,8.58-19.97c5.6-4.67,13.4-7.03,23.19-7.03,13.6,0,25.3,2.72,34.81,8.08l1.86-12.95c-4.67-2.11-10.13-3.79-16.24-5C683.68.67,676.68,0,669.49,0c-14.92,0-26.73,3.51-35.13,10.42-8.29,6.83-12.5,16.44-12.5,28.55s4.23,21.73,12.57,28.57h0c8.44,6.93,20.27,10.45,35.15,10.45,7.18,0,14.23-.68,20.96-2.01,6.18-1.23,11.6-2.91,16.13-5.02l-1.75-13c-4.32,2.34-9.28,4.24-14.78,5.64Z"/>
      <rect class="cls-1" fill="#00666c" x="780.84" y="34.07" width="39.92" height="9.79"/>
      <polygon class="cls-1" fill="#00666c" points="823.52 1.63 753 1.63 753 76.31 823.52 76.31 823.52 65.76 768.15 65.76 768.15 12.19 823.52 12.19 823.52 1.63"/>
    </g>
  </g>
</svg>